<?xml version="1.0" encoding="UTF-8"?>
<!DOCTYPE svg PUBLIC "-//W3C//DTD SVG 1.1//EN" "http://www.w3.org/Graphics/SVG/1.1/DTD/svg11.dtd">
<svg xmlns="http://www.w3.org/2000/svg" version="1.1" width="512px" height="512px" style="shape-rendering:geometricPrecision; text-rendering:geometricPrecision; image-rendering:optimizeQuality; fill-rule:evenodd; clip-rule:evenodd" xmlns:xlink="http://www.w3.org/1999/xlink">
<g><path style="opacity:0.997" fill="#70c6dd" d="M 228.5,61.5 C 252.158,58.9974 274.158,63.8307 294.5,76C 306.68,82.9209 318.347,90.5875 329.5,99C 348.083,119.079 349.916,140.579 335,163.5C 325.318,174.423 313.152,180.09 298.5,180.5C 276.952,179.603 255.785,176.27 235,170.5C 220.553,172.282 211.886,180.282 209,194.5C 208.593,212.102 217.093,222.602 234.5,226C 268.167,226.333 301.833,226.667 335.5,227C 360.563,234.748 370.73,251.582 366,277.5C 363.729,285.206 359.563,291.706 353.5,297C 371.167,297.333 388.833,297.667 406.5,298C 432.651,305.503 443.151,322.669 438,349.5C 435.807,356.725 431.974,362.892 426.5,368C 438.5,368.333 450.5,368.667 462.5,369C 489.234,372.4 502.4,387.566 502,414.5C 498.808,432.691 488.308,444.191 470.5,449C 327.167,449.667 183.833,449.667 40.5,449C 17.44,442.055 6.94005,426.555 9,402.5C 12.8333,384 24,372.833 42.5,369C 56.5,368.667 70.5,368.333 84.5,368C 69.7426,351.771 67.5759,333.938 78,314.5C 84.2372,305.624 92.7372,300.124 103.5,298C 127.833,297.667 152.167,297.333 176.5,297C 139.529,279.003 118.363,249.503 113,208.5C 109.169,154.338 129.336,111.838 173.5,81C 190.522,70.4746 208.855,63.9746 228.5,61.5 Z M 243.5,105.5 C 248.511,105.334 253.511,105.501 258.5,106C 261.167,109 261.167,112 258.5,115C 253.5,115.667 248.5,115.667 243.5,115C 240.888,111.836 240.888,108.669 243.5,105.5 Z"/></g>
<g><path style="opacity:0.969" fill="#70c6dd" d="M 407.5,113.5 C 414.173,112.382 417.34,115.049 417,121.5C 411.017,128.317 404.851,134.984 398.5,141.5C 404.152,147.652 409.985,153.652 416,159.5C 418.984,167.05 416.484,170.55 408.5,170C 400.864,163.365 393.53,156.365 386.5,149C 375.485,148.832 364.485,148.332 353.5,147.5C 354.598,143.577 355.265,139.577 355.5,135.5C 365.839,135.666 376.172,135.5 386.5,135C 393.703,127.965 400.703,120.798 407.5,113.5 Z"/></g>
</svg>
